# xmcd
#
# Track frame offsets:
#	150
#	19915
#	35478
#	49604
#	62770
#	77768
#	90929
#	102420
#	117829
#	132097
#	143693
#	162442
#	178930
#	196518
#	208949
#	224925
#	237391
#	250397
#	261748
#	273100
#
# Disc length: 3828 seconds
#
# Revision: 1
# Processed by: cddbd v1.5.1PL0 Copyright (c) Steve Scherf et al.
# Submitted via: EasyCDDAExtractor 6.2.0.3
#
DISCID=2b0ef214
DTITLE=Various Artist - Boate Azul - Só Modão
DYEAR=1900
DGENRE=
TTITLE0=Milionário e José Rico - Sonhei com Você
TTITLE1=Trio Parada Dura - Blusa Vermelha
TTITLE2=Chico Rey e Paraná - Alma Transparente
TTITLE3=Gilberto e Gilmar - Capa de Revista
TTITLE4=Joaquim e Manuel - Boate Azul
TTITLE5=Duduca e Dalvan - Dama de Vermelho
TTITLE6=Teodoro e Sampaio - Amigos de Bar
TTITLE7=Chico Rey e Paraná - Tranque a Porta e Me Beije
TTITLE8=João Mineiro e Marciano - A Bailarina
TTITLE9=Juliano e Jardel - Sorriso Mudo
TTITLE10=Paulo Henrique - Uma Lágrima
TTITLE11=Chitãozinho e Xororó - Amor a Três
TTITLE12=Chico Rey e Paraná - Quem Será Seu Outro Amor
TTITLE13=Barrerito - Cadeira Amiga
TTITLE14=Carlos Alexandre - Cartão Postal
TTITLE15=Cláudio Barros - Cinzas do Passado
TTITLE16=João Viola - Despedida
TTITLE17=Gilberto e Gilmar - Assino com X
TTITLE18=Barrerito - O Filho do Carreteiro
TTITLE19=João Mineiro e Marciano - Ainda Ontem Chorei de Saudade
EXTD=
EXTT0=
EXTT1=
EXTT2=
EXTT3=
EXTT4=
EXTT5=
EXTT6=
EXTT7=
EXTT8=
EXTT9=
EXTT10=
EXTT11=
EXTT12=
EXTT13=
EXTT14=
EXTT15=
EXTT16=
EXTT17=
EXTT18=
EXTT19=
PLAYORDER=
